<?xml version="1.0" standalone="no"?>
<!DOCTYPE svg PUBLIC "-//W3C//DTD SVG 1.0//EN" "http://www.w3.org/TR/2001/REC-SVG-20010904/DTD/svg10.dtd">
<svg xmlns="http://www.w3.org/2000/svg" xmlns:xlink="http://www.w3.org/1999/xlink" id="body_1" width="570" height="306">

<g transform="matrix(0.4995618 0 0 0.5 0 0)">
	<g>
	</g>
    <path d="M0 0L1141 0L1141 612L0 612L0 0z" stroke="none" fill="#191F2C" fill-rule="nonzero" />
	<g>
	</g>
    <path d="M564 978C 776.077 978 948 806.077 948 594C 948 381.92297 776.077 210 564 210C 351.92297 210 180 381.923 180 594C 180 806.077 351.923 978 564 978zM564 979C 776.63 979 949 806.63 949 594C 949 381.37 776.63 209 564 209C 351.37 209 179 381.37 179 594C 179 806.63 351.37 979 564 979z" stroke="none" fill="#FFFFFF" fill-rule="nonzero" />
	<g>
	</g>
    <path d="M182 200L946 200L946 964L182 964L182 200z" stroke="none" fill="none" />
	<g>
	</g>
    <path d="M203 215L921 215L921 945.226L203 945.226L203 215z" stroke="none" fill="none" />
	<g>
	</g>
    <path d="M204 217L922 217L922 947.226L204 947.226L204 217z" stroke="none" fill="none" />
	<g transform="matrix(-0.020139808 -0.9997972 0.9997972 -0.020139808 -675.3371 1180.1299)">
	</g>
    <path transform="matrix(-0.020139808 -0.9997972 0.9997972 -0.020139808 -675.3371 1180.1299)"  d="M240.63 921L895.277 921L895.277 1575.647L240.63 1575.647L240.63 921z" stroke="none" fill="none" />
	<g>
	</g>
    <path d="M274 273L850 273L850 849L274 849L274 273z" stroke="none" fill="none" />
	<g>
	</g>
    <path d="M251 280L873 280L873 884L251 884L251 280z" stroke="none" fill="none" />
	<g transform="matrix(-1 -0 0 1 822 298)">
	</g>
    <path transform="matrix(-1 -0 0 1 822 298)"  d="M0 0L520 0L520 571L0 571L0 0z" stroke="none" fill="none" />
	<g>
	</g>
    <path d="M313 295L779 295L779 761L313 761L313 295z" stroke="none" fill="none" />
	<g>
	</g>
    <path d="M220 240L912 240L912 932L220 932L220 240z" stroke="none" fill="none" />
	<g>
	</g>
    <path d="M564.39 984.971C 785.247 984.971 964.287 807.507 964.287 588.595C 964.287 369.68298 785.247 192.21997 564.39 192.21997C 343.53302 192.21997 164.493 369.683 164.493 588.595C 164.493 807.50696 343.533 984.97095 564.39 984.97095L564.39 984.97095L564.39 984.971zM564.39 985.94C 785.787 985.94 965.26404 808.04297 965.26404 588.595C 965.26404 369.14795 785.78705 191.25098 564.39 191.25098C 342.993 191.25098 163.51501 369.14798 163.51501 588.595C 163.51501 808.04297 342.993 985.93994 564.39 985.93994z" stroke="none" fill="#FFFFFF" fill-rule="nonzero" />
	<g>
	</g>
    <path d="M64 12.452L1059.31 4.832L1067 991.38L71.688 999L64 12.452z" stroke="none" fill="none" />
	<g>
	</g>
    <path d="M171.46901 496.399C 171.46901 493.5586 173.7922 491.25598 176.658 491.25598C 179.5238 491.25598 181.847 493.5586 181.847 496.399C 181.847 499.23938 179.5238 501.542 176.658 501.542C 173.7922 501.542 171.46901 499.23938 171.46901 496.399" stroke="none" fill="#FFFFFF" fill-rule="nonzero" />
	<g>
	</g>
    <path d="M229.156 362.157C 229.156 359.05814 231.4792 356.54602 234.345 356.54602C 237.2108 356.54602 239.534 359.05814 239.534 362.157C 239.534 365.2559 237.2108 367.768 234.345 367.768C 231.4792 367.768 229.156 365.2559 229.156 362.157" stroke="none" fill="#FFFFFF" fill-rule="nonzero" />
	<g>
	</g>
    <path d="M341.596 255.085C 341.596 252.2446 343.9192 249.942 346.785 249.942C 349.65082 249.942 351.974 252.2446 351.974 255.085C 351.974 257.9254 349.65082 260.228 346.785 260.228C 343.9192 260.228 341.596 257.9254 341.596 255.085" stroke="none" fill="#FFFFFF" fill-rule="nonzero" />
	<g>
	</g>
    <path d="M499.014 196.435C 499.014 193.33612 501.54807 190.824 504.674 190.824C 507.79996 190.824 510.334 193.33612 510.334 196.435C 510.334 199.53387 507.79996 202.04599 504.674 202.04599C 501.54807 202.04599 499.014 199.53387 499.014 196.435" stroke="none" fill="#FFFFFF" fill-rule="nonzero" />
	<g>
	</g>
    <path d="M655.453 202.752C 655.453 199.91159 657.98706 197.609 661.113 197.609C 664.2389 197.609 666.77295 199.91159 666.77295 202.752C 666.77295 205.5924 664.2389 207.895 661.113 207.895C 657.98706 207.895 655.453 205.5924 655.453 202.752" stroke="none" fill="#FFFFFF" fill-rule="nonzero" />
	<g>
	</g>
    <path d="M782.388 258.578C 782.388 255.47913 784.71124 252.96701 787.577 252.96701C 790.4428 252.96701 792.76605 255.47913 792.76605 258.578C 792.76605 261.67688 790.4428 264.189 787.577 264.189C 784.71124 264.189 782.388 261.67688 782.388 258.578" stroke="none" fill="#FFFFFF" fill-rule="nonzero" />
	<g>
	</g>
    <path d="M886.16296 360.036C 886.16296 357.19562 888.4862 354.893 891.352 354.893C 894.2178 354.893 896.541 357.19562 896.541 360.036C 896.541 362.8764 894.2178 365.17902 891.352 365.17902C 888.4862 365.17902 886.16296 362.8764 886.16296 360.036" stroke="none" fill="#FFFFFF" fill-rule="nonzero" />
	<g>
	</g>
    <path d="M948.428 490.95C 948.428 488.10962 950.7512 485.807 953.617 485.807C 956.4828 485.807 958.806 488.10962 958.806 490.95C 958.806 493.7904 956.4828 496.09302 953.617 496.09302C 950.7512 496.09302 948.428 493.7904 948.428 490.95" stroke="none" fill="#FFFFFF" fill-rule="nonzero" />
	<g transform="matrix(0.9992575 0.038527325 -0.038527325 0.9992575 8.256798 -2.8773499)">
	</g>
    <path d="M76.07267 283.11377C 77.57009 244.27611 110.268105 214.0059 149.10574 215.50333C 187.94339 217.00075 218.2136 249.69875 216.71619 288.5364L216.71619 288.5364L216.31061 299.05554C 214.81317 337.8932 182.11514 368.16342 143.2775 366.666C 104.43989 365.16858 74.16967 332.47055 75.66709 293.6329L75.66709 293.6329L76.07267 283.11377z" stroke="none" fill="none" />
	<g transform="matrix(0.9992575 0.038527325 -0.038527325 0.9992575 8.277145 -2.895462)">
	</g>
    <path d="M76.57193 283.13312C 78.058716 244.57143 110.524414 214.51627 149.0861 216.00305C 187.6478 217.48982 217.70294 249.95554 216.21617 288.5172L216.21617 288.5172L215.8106 299.03644C 214.3238 337.59808 181.85811 367.65326 143.29642 366.16644C 104.73472 364.6797 74.67957 332.214 76.16635 293.65228L76.16635 293.65228L76.57193 283.13312z" stroke="#000000" stroke-width="1" fill="none" stroke-opacity="0.4" />
	<g transform="matrix(0.9992575 0.038527325 -0.038527325 0.9992575 11.284225 -5.3974304)">
	</g>
    <path transform="matrix(0.9992575 0.038527325 -0.038527325 0.9992575 11.284225 -5.3974304)"  d="M86.49 290.082C 86.49 255.5736 112.99161 227.599 145.683 227.599C 178.37439 227.599 204.876 255.5736 204.876 290.082C 204.876 324.59042 178.37439 352.565 145.683 352.565C 112.99161 352.565 86.49 324.59042 86.49 290.082" stroke="none" fill="#CAA472" fill-rule="nonzero" />
	<g>
	</g>
    <path d="M204.332 292.343C 203.013 326.576 175.661 353.267 143.295 352.01898C 110.92999 350.771 85.715 322.054 87.034 287.82098C 88.354 253.58899 115.704994 226.89798 148.071 228.14598C 180.437 229.39297 205.65201 258.111 204.332 292.343z" stroke="#000000" stroke-width="1" fill="none" stroke-opacity="0.4" />
	<g transform="matrix(0.9992575 0.038527325 -0.038527325 0.9992575 11.318741 -5.4165344)">
	</g>
    <path transform="matrix(0.9992575 0.038527325 -0.038527325 0.9992575 11.318741 -5.4165344)"  d="M75.822 290.968C 75.822 250.14145 107.32951 217.04498 146.196 217.04498C 185.06248 217.04498 216.57 250.14145 216.57 290.968C 216.57 331.79453 185.06248 364.891 146.196 364.891C 107.32951 364.891 75.822 331.79453 75.822 290.968" stroke="none" fill="#BA8C63" fill-rule="nonzero" />
	<g>
	</g>
    <path d="M216.019 293.66C 214.456 334.203 181.907 365.82202 143.368 364.336C 104.828995 362.85 74.811 328.82 76.37399 288.276C 77.937 247.733 110.48599 216.114 149.025 217.6C 187.564 219.085 217.582 253.116 216.019 293.66z" stroke="#000000" stroke-width="1" fill="none" stroke-opacity="0.4" />
	<g>
	</g>
    <path d="M92 234L208 234L208 350L92 350L92 234z" stroke="none" fill="none" />
	<g transform="matrix(0.9992575 0.038527325 -0.038527325 0.9992575 15.610168 -38.041473)">
	</g>
    <path d="M992.11664 456.32172C 993.6141 417.4841 1026.3121 387.2139 1065.1497 388.71133C 1103.9873 390.20874 1134.2576 422.90674 1132.7603 461.74435L1132.7603 461.74435L1132.3547 472.26355C 1130.8572 511.10123 1098.1589 541.37146 1059.3215 539.874C 1020.4839 538.3766 990.2137 505.67856 991.71106 466.8409L991.71106 466.8409L992.11664 456.32172z" stroke="none" fill="none" />
	<g transform="matrix(0.9992575 0.038527325 -0.038527325 0.9992575 15.630493 -38.05957)">
	</g>
    <path d="M992.61584 456.34113C 994.10266 417.77945 1026.5684 387.72427 1065.13 389.21106C 1103.6917 390.69785 1133.747 423.16357 1132.2601 461.72525L1132.2601 461.72525L1131.8546 472.24445C 1130.3678 510.8061 1097.902 540.86127 1059.3403 539.3745C 1020.77875 537.8877 990.7235 505.422 992.21027 466.86032L992.21027 466.86032L992.61584 456.34113z" stroke="#000000" stroke-width="1" fill="none" stroke-opacity="0.4" />
	<g transform="matrix(0.9992575 0.038527325 -0.038527325 0.9992575 18.637451 -40.561676)">
	</g>
    <path transform="matrix(0.9992575 0.038527325 -0.038527325 0.9992575 18.637451 -40.561676)"  d="M1002.537 463.29C 1002.537 428.7816 1029.0386 400.807 1061.73 400.807C 1094.4214 400.807 1120.923 428.7816 1120.923 463.29C 1120.923 497.79843 1094.4214 525.773 1061.73 525.773C 1029.0386 525.773 1002.537 497.79843 1002.537 463.29" stroke="none" fill="#CAA472" fill-rule="nonzero" />
	<g>
	</g>
    <path d="M1120.38 465.551C 1119.06 499.784 1091.71 526.475 1059.34 525.227C 1026.97 523.979 1001.75995 495.262 1003.07996 461.029C 1004.39996 426.797 1031.75 400.106 1064.11 401.354C 1096.48 402.602 1121.7 431.319 1120.38 465.551z" stroke="#000000" stroke-width="1" fill="none" stroke-opacity="0.4" />
	<g transform="matrix(0.9992575 0.038527325 -0.038527325 0.9992575 18.67212 -40.580658)">
	</g>
    <path transform="matrix(0.9992575 0.038527325 -0.038527325 0.9992575 18.67212 -40.580658)"  d="M991.86597 464.176C 991.86597 423.34946 1023.3735 390.253 1062.24 390.253C 1101.1064 390.253 1132.614 423.34946 1132.614 464.176C 1132.614 505.00253 1101.1064 538.099 1062.24 538.099C 1023.3735 538.099 991.86597 505.00253 991.86597 464.176" stroke="none" fill="#BA8C63" fill-rule="nonzero" />
	<g>
	</g>
    <path d="M1132.06 466.868C 1130.5 507.411 1097.9501 539.03 1059.41 537.544C 1020.87006 536.059 990.85504 502.028 992.418 461.484C 993.981 420.941 1026.53 389.32202 1065.0701 390.808C 1103.6101 392.294 1133.6301 426.324 1132.06 466.868z" stroke="#000000" stroke-width="1" fill="none" stroke-opacity="0.4" />
	<g>
	</g>
    <path d="M992 407L1117.434 407L1117.434 533.399L992 533.399L992 407z" stroke="none" fill="none" />
	<g transform="matrix(0.9992575 0.038527325 -0.038527325 0.9992575 14.718051 0.25170898)">
	</g>
    <path d="M-1.8833246 452.32172C -0.3859024 413.48407 32.31212 383.21387 71.14975 384.7113C 109.98737 386.2087 140.2576 418.90674 138.76018 457.7444L138.76018 457.7444L138.3546 468.26358C 136.85718 507.1012 104.15915 537.37146 65.321526 535.874C 26.483894 534.3766 -3.7863226 501.67853 -2.2889013 462.8409L-2.2889013 462.8409L-1.8833246 452.32172z" stroke="none" fill="none" />
	<g transform="matrix(0.9992575 0.038527325 -0.038527325 0.9992575 14.738403 0.23358154)">
	</g>
    <path d="M-1.3840599 452.34106C 0.10272217 413.7794 32.568424 383.72424 71.13012 385.21103C 109.69181 386.6978 139.74695 419.1635 138.26018 457.7252L138.26018 457.7252L137.8546 468.2444C 136.36781 506.80606 103.902115 536.86127 65.34042 535.37445C 26.77873 533.8877 -3.2764206 501.42194 -1.7896385 462.86026L-1.7896385 462.86026L-1.3840599 452.34106z" stroke="#000000" stroke-width="1" fill="none" stroke-opacity="0.4" />
	<g transform="matrix(0.9992575 0.038527325 -0.038527325 0.9992575 17.745499 -2.268341)">
	</g>
    <path transform="matrix(0.9992575 0.038527325 -0.038527325 0.9992575 17.745499 -2.268341)"  d="M8.533997 459.29C 8.533997 424.7816 35.035603 396.807 67.727 396.807C 100.418396 396.807 126.92 424.7816 126.92 459.29C 126.92 493.79843 100.418396 521.773 67.727 521.773C 35.035603 521.773 8.533997 493.79843 8.533997 459.29" stroke="none" fill="#CAA472" fill-rule="nonzero" />
	<g>
	</g>
    <path d="M126.376 461.551C 125.056 495.784 97.706 522.475 65.339005 521.227C 32.974003 519.979 7.7590027 491.262 9.078003 457.029C 10.398003 422.797 37.748 396.106 70.115005 397.354C 102.481 398.602 127.69601 427.319 126.37601 461.551L126.37601 461.551L126.376 461.551z" stroke="#000000" stroke-width="1" fill="none" stroke-opacity="0.4" />
	<g transform="matrix(0.9992575 0.038527325 -0.038527325 0.9992575 17.780014 -2.287445)">
	</g>
    <path transform="matrix(0.9992575 0.038527325 -0.038527325 0.9992575 17.780014 -2.287445)"  d="M-2.1340027 460.176C -2.1340027 419.34946 29.373508 386.253 68.24 386.253C 107.10649 386.253 138.614 419.34946 138.614 460.176C 138.614 501.00253 107.10649 534.099 68.24 534.099C 29.373508 534.099 -2.1340027 501.00253 -2.1340027 460.176" stroke="none" fill="#BA8C63" fill-rule="nonzero" />
	<g>
	</g>
    <path d="M138.062 462.868C 136.499 503.411 103.951 535.03 65.411995 533.544C 26.871994 532.059 -3.1450043 498.028 -1.5820084 457.484C -0.019008398 416.941 32.52999 385.32202 71.06799 386.808C 109.607994 388.294 139.625 422.324 138.062 462.868z" stroke="#000000" stroke-width="1" fill="none" stroke-opacity="0.4" />
	<g transform="matrix(0.58815235 -0.8087501 -0.8087501 -0.58815235 49.462097 564.9493)">
	</g>
    <path transform="matrix(0.58815235 -0.8087501 -0.8087501 -0.58815235 49.462097 564.9493)"  d="M0 0L192.64 0L192.64 92.07L0 92.07L0 0z" stroke="none" fill="none" />
	<g transform="matrix(0.9992575 0.038527325 -0.038527325 0.9992575 3.1690826 -8.450012)">
	</g>
    <path d="M218.11667 148.32173C 219.61409 109.48411 252.3121 79.21388 291.14972 80.7113C 329.98737 82.208725 360.25757 114.90675 358.76013 153.74437L358.76013 153.74437L358.35455 164.26357C 356.85718 203.1012 324.15912 233.3714 285.32153 231.87398C 246.48387 230.37656 216.21367 197.67856 217.71109 158.84093L217.71109 158.84093L218.11667 148.32173z" stroke="none" fill="none" />
	<g transform="matrix(0.9992575 0.038527325 -0.038527325 0.9992575 3.1894226 -8.468109)">
	</g>
    <path d="M218.61592 148.34113C 220.10269 109.77942 252.5684 79.72427 291.13013 81.21106C 329.6918 82.69784 359.74692 115.163536 358.26013 153.72523L358.26013 153.72523L357.85455 164.2444C 356.36777 202.80609 323.9021 232.86125 285.34042 231.37447C 246.77872 229.88768 216.72356 197.42197 218.21034 158.86029L218.21034 158.86029L218.61592 148.34113z" stroke="#000000" stroke-width="1" fill="none" stroke-opacity="0.4" />
	<g transform="matrix(0.9992575 0.038527325 -0.038527325 0.9992575 6.1965027 -10.970062)">
	</g>
    <path transform="matrix(0.9992575 0.038527325 -0.038527325 0.9992575 6.1965027 -10.970062)"  d="M228.534 155.29C 228.534 120.781586 255.0356 92.80699 287.727 92.80699C 320.4184 92.80699 346.91998 120.781586 346.91998 155.29C 346.91998 189.7984 320.4184 217.773 287.727 217.773C 255.0356 217.773 228.534 189.7984 228.534 155.29" stroke="none" fill="#CAA472" fill-rule="nonzero" />
	<g>
	</g>
    <path d="M346.376 157.551C 345.056 191.784 317.70502 218.47499 285.33902 217.22699C 252.97302 215.97899 227.75803 187.262 229.07802 153.02899C 230.39803 118.797 257.74902 92.10599 290.11502 93.35399C 322.48102 94.60199 347.696 123.318985 346.37604 157.551L346.37604 157.551L346.376 157.551z" stroke="#000000" stroke-width="1" fill="none" stroke-opacity="0.4" />
	<g transform="matrix(0.9992575 0.038527325 -0.038527325 0.9992575 6.231018 -10.989166)">
	</g>
    <path transform="matrix(0.9992575 0.038527325 -0.038527325 0.9992575 6.231018 -10.989166)"  d="M217.866 156.176C 217.866 115.34945 249.3735 82.253 288.24 82.253C 327.10648 82.253 358.61398 115.34945 358.61398 156.176C 358.61398 197.00253 327.10648 230.099 288.24 230.099C 249.3735 230.099 217.866 197.00253 217.866 156.176" stroke="none" fill="#BA8C63" fill-rule="nonzero" />
	<g>
	</g>
    <path d="M358.062 158.868C 356.49902 199.411 323.95102 231.03 285.41202 229.544C 246.87302 228.059 216.85501 194.02802 218.41801 153.48401C 219.98102 112.94101 252.53001 81.32201 291.06903 82.80801C 329.60803 84.29401 359.62503 118.324005 358.062 158.86801L358.062 158.86801L358.062 158.868z" stroke="#000000" stroke-width="1" fill="none" stroke-opacity="0.4" />
	<g transform="matrix(-0.102810025 0.99470097 0.99470097 0.102810025 223.93272 91.00082)">
	</g>
    <path transform="matrix(-0.102810025 0.99470097 0.99470097 0.102810025 223.93272 91.00082)"  d="M0 0L125.809 0L125.809 125.809L0 125.809L0 0z" stroke="none" fill="none" />
	<g transform="matrix(-0.102810025 0.99470097 0.99470097 0.102810025 236.93332 85.000374)">
	</g>
    <path transform="matrix(-0.102810025 0.99470097 0.99470097 0.102810025 236.93332 85.000374)"  d="M0 0L125.809 0L125.809 125.809L0 125.809L0 0z" stroke="none" fill="none" />
	<g transform="matrix(0.9992575 0.038527325 -0.038527325 0.9992575 0.97216797 -24.448574)">
	</g>
    <path d="M632.11664 83.32175C 633.614 44.48412 666.3121 14.213898 705.1497 15.711323C 743.9873 17.20874 774.2575 49.906765 772.76013 88.744385L772.76013 88.744385L772.35455 99.263565C 770.8571 138.10121 738.15906 168.3714 699.3215 166.874C 660.4838 165.37656 630.2136 132.67856 631.71106 93.84093L631.71106 93.84093L632.11664 83.32175z" stroke="none" fill="none" />
	<g transform="matrix(0.9992575 0.038527325 -0.038527325 0.9992575 0.9924927 -24.466684)">
	</g>
    <path d="M632.61584 83.34111C 634.1026 44.779427 666.5683 14.724272 705.13 16.211054C 743.6917 17.697836 773.7468 50.163536 772.2601 88.72523L772.2601 88.72523L771.8545 99.24441C 770.3677 137.8061 737.90204 167.86125 699.34033 166.37447C 660.7786 164.88768 630.72345 132.42198 632.21027 93.86029L632.21027 93.86029L632.61584 83.34111z" stroke="#000000" stroke-width="1" fill="none" stroke-opacity="0.4" />
	<g transform="matrix(0.9992575 0.038527325 -0.038527325 0.9992575 3.9995728 -26.968628)">
	</g>
    <path transform="matrix(0.9992575 0.038527325 -0.038527325 0.9992575 3.9995728 -26.968628)"  d="M642.534 90.29C 642.534 55.78159 669.0356 27.807 701.727 27.807C 734.4184 27.807 760.92 55.78159 760.92 90.29C 760.92 124.798416 734.4184 152.77301 701.727 152.77301C 669.0356 152.77301 642.534 124.798416 642.534 90.29" stroke="none" fill="#CAA472" fill-rule="nonzero" />
	<g>
	</g>
    <path d="M760.376 92.552C 759.05597 126.784 731.70496 153.475 699.339 152.227C 666.97296 150.979 641.758 122.26201 643.078 88.02901C 644.398 53.79701 671.749 27.106007 704.115 28.354008C 736.481 29.602007 761.696 58.319008 760.376 92.552z" stroke="#000000" stroke-width="1" fill="none" stroke-opacity="0.4" />
	<g transform="matrix(0.9992575 0.038527325 -0.038527325 0.9992575 4.0341187 -26.98774)">
	</g>
    <path transform="matrix(0.9992575 0.038527325 -0.038527325 0.9992575 4.0341187 -26.98774)"  d="M631.86597 91.176C 631.86597 50.349457 663.3735 17.253006 702.24 17.253006C 741.1065 17.253006 772.614 50.349457 772.614 91.176C 772.614 132.00255 741.1065 165.099 702.24 165.099C 663.3735 165.099 631.86597 132.00255 631.86597 91.176" stroke="none" fill="#BA8C63" fill-rule="nonzero" />
	<g>
	</g>
    <path d="M772.062 93.868C 770.499 134.411 737.951 166.03 699.412 164.544C 660.873 163.059 630.855 129.02802 632.41797 88.48401C 633.98096 47.94101 666.52997 16.322006 705.069 17.808006C 743.608 19.294006 773.625 53.324005 772.06195 93.868004L772.06195 93.868004L772.062 93.868z" stroke="#000000" stroke-width="1" fill="none" stroke-opacity="0.4" />
	<g transform="matrix(0.25881892 -0.9659259 0.9659259 0.25881892 325.2138 698.8708)">
	</g>
    <path transform="matrix(0.25881892 -0.9659259 0.9659259 0.25881892 325.2138 698.8708)"  d="M618 137.522L743.809 137.522L743.809 263.331L618 263.331L618 137.522z" stroke="none" fill="none" />
	<g transform="matrix(0.25881892 -0.9659259 0.9659259 0.25881892 319.9347 705.9909)">
	</g>
    <path transform="matrix(0.25881892 -0.9659259 0.9659259 0.25881892 319.9347 705.9909)"  d="M620 144.522L745.809 144.522L745.809 270.331L620 270.331L620 144.522z" stroke="none" fill="none" />
	<g>
		<g>
		</g>
        <path d="M732.982 137.763C 732.982 137.763 688.934 160.975 665.005 162.718C 665.005 162.718 680.234 131.94301 725.021 110.66C 725.021 110.66 728.26697 127.007 731.17 125.635L731.17 125.635L732.982 137.763z" stroke="none" fill="#D6DFE3" fill-rule="nonzero" />
		<g>
		</g>
        <path d="M726.138 115.485C 725.487 112.832 725.021 110.66 725.021 110.66C 680.234 131.94301 665.005 162.718 665.005 162.718C 666.545 162.559 668.084 162.401 669.817 162.151C 676.151 152.552 692.88403 131.431 726.138 115.485z" stroke="none" fill="#AEBABF" fill-rule="nonzero" />
		<g>
		</g>
        <path d="M733.738 138.544L775.428 118.725006L773.07996 104.003006C 773.07996 104.003006 772.90393 102.94701 772.12994 103.313C 770.38794 104.137 770.36993 105.284004 769.42896 106.526C 768.21497 108.011 765.8129 109.26 765.8129 109.26L765.8129 109.26L731.0899 125.786L733.1659 138.245C 733.1219 138.607 733.3509 138.72699 733.7379 138.54399L733.7379 138.54399L733.738 138.544z" stroke="none" fill="#333333" fill-rule="nonzero" />
		<g>
		</g>
        <path d="M768.532 114.923C 768.42596 114.28999 768.901 113.381996 769.482 113.106995C 769.7571 112.978096 770.07666 112.98513 770.3459 113.126015C 770.61505 113.26689 770.80304 113.52545 770.854 113.825C 770.96 114.459 770.485 115.367 769.904 115.641C 769.323 115.916 768.752 115.616 768.532 114.923z" stroke="none" fill="#D0D0D0" fill-rule="nonzero" />
	</g>
	<g transform="matrix(0.9992575 0.038527325 -0.038527325 0.9992575 9.470825 -35.461884)">
	</g>
    <path d="M922.1166 298.32175C 923.614 259.4841 956.312 229.21387 995.14966 230.7113C 1033.9873 232.20871 1064.2576 264.90674 1062.7601 303.7444L1062.7601 303.7444L1062.3546 314.26355C 1060.8572 353.1012 1028.159 383.3714 989.3215 381.87396C 950.4838 380.37656 920.21356 347.67856 921.711 308.8409L921.711 308.8409L922.1166 298.32175z" stroke="none" fill="none" />
	<g transform="matrix(0.9992575 0.038527325 -0.038527325 0.9992575 9.491211 -35.479996)">
	</g>
    <path d="M922.6159 298.34113C 924.10266 259.77942 956.56836 229.72423 995.1301 231.21101C 1033.6918 232.6978 1063.747 265.1635 1062.2601 303.72522L1062.2601 303.72522L1061.8546 314.2444C 1060.3678 352.8061 1027.9021 382.86127 989.3404 381.37445C 950.7786 379.8877 920.7235 347.422 922.2103 308.8603L922.2103 308.8603L922.6159 298.34113z" stroke="#000000" stroke-width="1" fill="none" stroke-opacity="0.4" />
	<g transform="matrix(0.9992575 0.038527325 -0.038527325 0.9992575 12.498291 -37.981964)">
	</g>
    <path transform="matrix(0.9992575 0.038527325 -0.038527325 0.9992575 12.498291 -37.981964)"  d="M932.534 305.29C 932.534 270.7816 959.0356 242.807 991.727 242.807C 1024.4183 242.807 1050.92 270.7816 1050.92 305.29C 1050.92 339.79843 1024.4183 367.773 991.727 367.773C 959.0356 367.773 932.534 339.79843 932.534 305.29" stroke="none" fill="#CAA472" fill-rule="nonzero" />
	<g>
	</g>
    <path d="M1050.38 307.551C 1049.06 341.784 1021.71 368.475 989.339 367.227C 956.97296 365.979 931.758 337.262 933.078 303.029C 934.398 268.797 961.749 242.10599 994.115 243.35399C 1026.48 244.60199 1051.7 273.319 1050.38 307.551z" stroke="#000000" stroke-width="1" fill="none" stroke-opacity="0.4" />
	<g transform="matrix(0.9992575 0.038527325 -0.038527325 0.9992575 12.532776 -38.001038)">
	</g>
    <path transform="matrix(0.9992575 0.038527325 -0.038527325 0.9992575 12.532776 -38.001038)"  d="M921.86597 306.176C 921.86597 265.34946 953.3735 232.25299 992.24 232.25299C 1031.1064 232.25299 1062.614 265.34946 1062.614 306.176C 1062.614 347.00253 1031.1064 380.099 992.24 380.099C 953.3735 380.099 921.86597 347.00253 921.86597 306.176" stroke="none" fill="#BA8C63" fill-rule="nonzero" />
	<g>
	</g>
    <path d="M1062.06 308.868C 1060.5 349.411 1027.9501 381.03003 989.41205 379.544C 950.87305 378.05902 920.85504 344.028 922.418 303.484C 923.981 262.941 956.53 231.322 995.06903 232.80801C 1033.61 234.294 1063.63 268.324 1062.06 308.868z" stroke="#000000" stroke-width="1" fill="none" stroke-opacity="0.4" />
	<g>
	</g>
    <path d="M939 255L1045 255L1045 361L939 361L939 255z" stroke="none" fill="none" />
	<g transform="matrix(0.9992575 0.038527325 -0.038527325 0.9992575 4.145752 -31.132202)">
	</g>
    <path d="M807.1166 162.32173C 808.614 123.484116 841.3121 93.2139 880.1497 94.71132C 918.9873 96.20874 949.2575 128.90675 947.7601 167.74438L947.7601 167.74438L947.3545 178.26358C 945.8571 217.1012 913.15906 247.3714 874.3215 245.874C 835.4838 244.37656 805.2136 211.67854 806.711 172.84093L806.711 172.84093L807.1166 162.32173z" stroke="none" fill="none" />
	<g transform="matrix(0.9992575 0.038527325 -0.038527325 0.9992575 4.1660767 -31.150314)">
	</g>
    <path d="M807.61584 162.34111C 809.10266 123.7794 841.5683 93.72426 880.13007 95.211044C 918.6917 96.69783 948.7469 129.16353 947.2601 167.72523L947.2601 167.72523L946.8545 178.2444C 945.36774 216.80609 912.90204 246.86125 874.3404 245.37447C 835.7786 243.88768 805.7235 211.42197 807.21027 172.86028L807.21027 172.86028L807.61584 162.34111z" stroke="#000000" stroke-width="1" fill="none" stroke-opacity="0.4" />
	<g transform="matrix(0.9992575 0.038527325 -0.038527325 0.9992575 7.173218 -33.652267)">
	</g>
    <path transform="matrix(0.9992575 0.038527325 -0.038527325 0.9992575 7.173218 -33.652267)"  d="M817.534 169.29C 817.534 134.78159 844.0356 106.80699 876.727 106.80699C 909.4184 106.80699 935.92 134.78159 935.92 169.29C 935.92 203.7984 909.4184 231.773 876.727 231.773C 844.0356 231.773 817.534 203.7984 817.534 169.29" stroke="none" fill="#CAA472" fill-rule="nonzero" />
	<g>
	</g>
    <path d="M935.376 171.551C 934.05597 205.784 906.70496 232.47499 874.339 231.22699C 841.97296 229.97899 816.758 201.262 818.078 167.02899C 819.398 132.797 846.749 106.10599 879.115 107.35399C 911.481 108.60199 936.696 137.31898 935.376 171.551z" stroke="#000000" stroke-width="1" fill="none" stroke-opacity="0.4" />
	<g transform="matrix(0.9992575 0.038527325 -0.038527325 0.9992575 7.2077026 -33.67137)">
	</g>
    <path transform="matrix(0.9992575 0.038527325 -0.038527325 0.9992575 7.2077026 -33.67137)"  d="M806.86597 170.176C 806.86597 129.34946 838.3735 96.253 877.24 96.253C 916.1065 96.253 947.614 129.34946 947.614 170.176C 947.614 211.00253 916.1065 244.099 877.24 244.099C 838.3735 244.099 806.86597 211.00253 806.86597 170.176" stroke="none" fill="#BA8C63" fill-rule="nonzero" />
	<g>
	</g>
    <path d="M947.062 172.868C 945.499 213.411 912.951 245.03 874.412 243.544C 835.873 242.059 805.855 208.02802 807.41797 167.48401C 808.98096 126.94101 841.52997 95.32201 880.069 96.80801C 918.608 98.29401 948.625 132.324 947.06195 172.86801L947.06195 172.86801L947.062 172.868z" stroke="#000000" stroke-width="1" fill="none" stroke-opacity="0.4" />
	<g>
	</g>
    <path d="M821 115L934 115L934 228L821 228L821 115z" stroke="none" fill="none" />
	<g transform="matrix(0.9992575 0.038527325 -0.038527325 0.9992575 0.46505737 -16.133354)">
	</g>
    <path d="M416.11667 74.32175C 417.61407 35.48412 450.31207 5.2138977 489.14972 6.711321C 527.9873 8.208742 558.25757 40.90676 556.76013 79.74439L556.76013 79.74439L556.3546 90.263565C 554.8572 129.1012 522.1592 159.3714 483.3215 157.874C 444.48386 156.37656 414.21365 123.67855 415.7111 84.84092L415.7111 84.84092L416.11667 74.32175z" stroke="none" fill="none" />
	<g transform="matrix(0.9992575 0.038527325 -0.038527325 0.9992575 0.4854126 -16.151464)">
	</g>
    <path d="M416.61594 74.34111C 418.1027 35.77942 450.56842 5.724272 489.1301 7.211054C 527.6918 8.697836 557.74695 41.163536 556.2602 79.72523L556.2602 79.72523L555.8546 90.24441C 554.3678 128.8061 521.9021 158.86127 483.3404 157.37448C 444.77872 155.8877 414.72357 123.42199 416.21036 84.86029L416.21036 84.86029L416.61594 74.34111z" stroke="#000000" stroke-width="1" fill="none" stroke-opacity="0.4" />
	<g transform="matrix(0.9992575 0.038527325 -0.038527325 0.9992575 3.4924927 -18.653412)">
	</g>
    <path transform="matrix(0.9992575 0.038527325 -0.038527325 0.9992575 3.4924927 -18.653412)"  d="M426.534 81.29C 426.534 46.78159 453.03558 18.807 485.727 18.807C 518.4184 18.807 544.92 46.78159 544.92 81.29C 544.92 115.798416 518.4184 143.77301 485.727 143.77301C 453.03558 143.77301 426.534 115.798416 426.534 81.29" stroke="none" fill="#CAA472" fill-rule="nonzero" />
	<g>
	</g>
    <path d="M544.376 83.552C 543.05597 117.784 515.70496 144.475 483.339 143.227C 450.973 141.979 425.758 113.26201 427.078 79.02901C 428.398 44.79701 455.749 18.106007 488.115 19.354008C 520.481 20.602007 545.696 49.319008 544.376 83.552z" stroke="#000000" stroke-width="1" fill="none" stroke-opacity="0.4" />
	<g transform="matrix(0.9992575 0.038527325 -0.038527325 0.9992575 3.5270386 -18.672516)">
	</g>
    <path transform="matrix(0.9992575 0.038527325 -0.038527325 0.9992575 3.5270386 -18.672516)"  d="M415.866 82.176C 415.866 41.349457 447.3735 8.253006 486.24 8.253006C 525.1065 8.253006 556.614 41.349457 556.614 82.176C 556.614 123.00255 525.1065 156.099 486.24 156.099C 447.3735 156.099 415.866 123.00255 415.866 82.176" stroke="none" fill="#BA8C63" fill-rule="nonzero" />
	<g>
	</g>
    <path d="M556.062 84.868C 554.499 125.410995 521.951 157.03 483.41202 155.544C 444.87302 154.059 414.855 120.02801 416.41803 79.48401C 417.98102 38.94101 450.53003 7.322006 489.06903 8.808006C 527.60803 10.294006 557.625 44.324005 556.062 84.868004L556.062 84.868004L556.062 84.868z" stroke="#000000" stroke-width="1" fill="none" stroke-opacity="0.4" />
	<g>
	</g>
    <path d="M438 38L528 38L528 127L438 127L438 38z" stroke="none" fill="none" />
</g>
</svg>