<svg width="110" height="139" viewBox="0 0 110 139" fill="none" xmlns="http://www.w3.org/2000/svg">
<path fill-rule="evenodd" clip-rule="evenodd" d="M54.052 4.62595C42.5952 0.56332 42.1984 16.8801 42.3968 19.1764C42.6944 22.4 43.8351 26.1314 41.3553 29.068C39.421 31.3422 36.3461 34.4112 30.6425 34.8528C24.5421 33.506 11.2999 20.9207 0.983821 25.6457C-2.14075 28.0303 11.8454 32.5566 20.0288 39.5779C25.3853 44.1483 37.7348 48.3655 41.6529 52.9801C46.8109 59.0079 42.5456 85.8786 40.9089 93.3194L82.7683 93.4078C83.5122 83.9356 69.526 58.3455 81.2804 51.3463C87.2816 47.7694 87.7775 39.3791 92.6876 34.4996C96.3081 30.9448 113.022 23.7468 107.467 19.6842C100.573 17.8516 98.1432 21.6714 95.8121 23.8572C94.6218 24.9612 87.1824 29.1784 85.2977 29.3992C83.6114 28.2952 90.9021 20.2583 92.3404 18.514C94.8698 15.4228 103.4 9.43929 92.4892 8.31324C87.1824 8.42363 85.0993 15.18 77.9574 20.5453C76.2216 21.8701 76.0232 24.4534 73.1466 24.9833C71.4107 23.9676 76.172 11.1394 77.4615 9.04186C78.7014 7.03262 81.578 2.32968 72.7002 3.08039C67.8398 3.4999 66.4015 7.62877 65.5583 9.52761C64.4672 11.9784 62.3842 14.4955 61.541 16.8801C61.2434 17.8074 60.7475 25.8665 56.5318 23.1286C53.2088 20.9869 56.8294 6.23776 54.0024 4.60387L54.052 4.62595Z" fill="#E9C6AF" stroke="black"/>
<path fill-rule="evenodd" clip-rule="evenodd" d="M54.052 4.62595C42.5952 0.56332 42.1984 16.8801 42.3968 19.1764C42.6944 22.4 43.8351 26.1314 41.3553 29.068C39.421 31.3422 36.3461 34.4112 30.6425 34.8528C24.5421 33.506 11.2999 20.9207 0.983821 25.6457C-2.14075 28.0303 11.8454 32.5566 20.0288 39.5779C25.3853 44.1483 37.7348 48.3655 41.6529 52.9801C46.8109 59.0079 42.5456 85.8786 40.9089 93.3194L82.7683 93.4078C83.5122 83.9356 69.526 58.3455 81.2804 51.3463C87.2816 47.7694 87.7775 39.3791 92.6876 34.4996C96.3081 30.9448 113.022 23.7468 107.467 19.6842C100.573 17.8516 98.1432 21.6714 95.8121 23.8572C94.6218 24.9612 87.1824 29.1784 85.2977 29.3992C83.6114 28.2952 90.9021 20.2583 92.3404 18.514C94.8698 15.4228 103.4 9.43929 92.4892 8.31324C87.1824 8.42363 85.0993 15.18 77.9574 20.5453C76.2216 21.8701 76.0232 24.4534 73.1466 24.9833C71.4107 23.9676 76.172 11.1394 77.4615 9.04186C78.7014 7.03262 81.578 2.32968 72.7002 3.08039C67.8398 3.4999 66.4015 7.62877 65.5583 9.52761C64.4672 11.9784 62.3842 14.4955 61.541 16.8801C61.2434 17.8074 60.7475 25.8665 56.5318 23.1286C53.2088 20.9869 56.8294 6.23776 54.0024 4.60387L54.052 4.62595Z" fill="url(#paint0_linear)" stroke="black"/>
<path fill-rule="evenodd" clip-rule="evenodd" d="M96.7086 12.105C95.7839 13.648 94.6973 13.78 91.9633 13.4815C89.2293 13.183 88.4247 12.8444 89.3494 11.3015C90.274 9.7585 92.671 8.68763 94.7032 8.90945C96.7354 9.13134 97.6333 10.562 96.7087 12.105L96.7086 12.105Z" fill="url(#paint1_linear)" stroke="black"/>
<g opacity="0.698" filter="url(#filter0_f)">
<path fill-rule="evenodd" clip-rule="evenodd" d="M95.6605 9.61094L95.6109 9.61047C95.0506 10.837 94.4265 12.0625 93.5839 13.2797L93.628 13.2898C94.9968 12.099 95.7076 10.5948 95.769 9.33705L95.6605 9.61094Z" fill="white"/>
</g>
<path fill-rule="evenodd" clip-rule="evenodd" d="M77.5796 6.70169C76.9048 8.27013 75.8421 8.43637 73.0672 8.22554C70.2923 8.01471 69.4355 7.70263 70.1102 6.1342C70.785 4.56577 73.0041 3.42142 75.0667 3.57807C77.1293 3.73478 78.2544 5.13328 77.5796 6.70167L77.5796 6.70169Z" fill="url(#paint2_linear)" stroke="black"/>
<g opacity="0.698" filter="url(#filter1_f)">
<path fill-rule="evenodd" clip-rule="evenodd" d="M76.1339 4.24733L76.0844 4.24844C75.7223 5.48966 75.2963 6.73188 74.6511 7.97275L74.6968 7.98139C75.871 6.75011 76.3387 5.22714 76.1982 3.97069L76.1339 4.24733Z" fill="white"/>
</g>
<path fill-rule="evenodd" clip-rule="evenodd" d="M54.684 7.2323C54.712 8.8292 53.743 9.08484 50.9291 9.11992C48.1152 9.15501 47.1376 8.92364 47.1096 7.32675C47.0817 5.72986 48.7546 4.41426 50.8462 4.38812C52.9378 4.36204 54.6561 5.63543 54.6841 7.23229L54.684 7.2323Z" fill="url(#paint3_linear)" stroke="black"/>
<g opacity="0.698" filter="url(#filter2_f)">
<path fill-rule="evenodd" clip-rule="evenodd" d="M52.187 4.95141L52.1389 4.95681C52.3296 6.20557 52.4581 7.46088 52.3711 8.73398L52.4196 8.73847C53.0298 7.42867 52.8187 5.89441 52.1284 4.67451L52.187 4.95141Z" fill="white"/>
</g>
<path fill-rule="evenodd" clip-rule="evenodd" d="M8.03017 26.629C10.0617 27.6136 9.78249 28.0146 8.07951 28.7398C6.37652 29.465 5.47771 29.5657 3.44615 28.5811C1.41459 27.5966 0.793958 26.3615 2.05973 25.8224C3.32557 25.2833 5.99866 25.6445 8.03018 26.629L8.03017 26.629Z" fill="url(#paint4_linear)" stroke="black"/>
<g opacity="0.698" filter="url(#filter3_f)">
<path fill-rule="evenodd" clip-rule="evenodd" d="M3.60292 25.8369L3.57987 25.8523C5.27335 26.58 6.93652 27.3273 8.48826 28.1396L8.52405 28.1303C7.25083 27.1644 5.18459 26.2645 3.21729 25.6796L3.60292 25.8369Z" fill="white"/>
</g>
<path fill-rule="evenodd" clip-rule="evenodd" d="M100.142 22.6034C99.3595 23.5702 99.7518 24.5298 102.156 24.8451C104.56 25.1604 105.294 24.7505 106.353 23.1736C107.413 21.5967 107.469 19.887 106.172 19.7171C104.876 19.5471 102.05 20.2447 100.142 22.6035L100.142 22.6034Z" fill="url(#paint5_linear)" stroke="black" stroke-width="1.00105"/>
<g opacity="0.698" filter="url(#filter4_f)">
<path fill-rule="evenodd" clip-rule="evenodd" d="M103.775 20.5961L103.813 20.6062C102.838 21.8225 101.914 23.0514 101.163 24.3195L101.118 24.3191C101.441 22.9626 102.618 21.4659 104.005 20.328L103.775 20.5961Z" fill="white"/>
</g>
<g filter="url(#filter5_d)">
<path d="M15.7725 100.67C15.7725 89.6242 24.7268 80.6699 35.7725 80.6699H83.7346C94.7803 80.6699 103.735 89.6242 103.735 100.67V131H15.7725V100.67Z" fill="white"/>
</g>
<defs>
<filter id="filter0_f" x="90.4095" y="6.16256" width="8.53412" height="10.3017" filterUnits="userSpaceOnUse" color-interpolation-filters="sRGB">
<feFlood flood-opacity="0" result="BackgroundImageFix"/>
<feBlend mode="normal" in="SourceGraphic" in2="BackgroundImageFix" result="shape"/>
<feGaussianBlur stdDeviation="1.58724" result="effect1_foregroundBlur"/>
</filter>
<filter id="filter1_f" x="71.4769" y="0.796198" width="7.92028" height="10.3597" filterUnits="userSpaceOnUse" color-interpolation-filters="sRGB">
<feFlood flood-opacity="0" result="BackgroundImageFix"/>
<feBlend mode="normal" in="SourceGraphic" in2="BackgroundImageFix" result="shape"/>
<feGaussianBlur stdDeviation="1.58724" result="effect1_foregroundBlur"/>
</filter>
<filter id="filter2_f" x="48.9539" y="1.50003" width="7.00013" height="10.4129" filterUnits="userSpaceOnUse" color-interpolation-filters="sRGB">
<feFlood flood-opacity="0" result="BackgroundImageFix"/>
<feBlend mode="normal" in="SourceGraphic" in2="BackgroundImageFix" result="shape"/>
<feGaussianBlur stdDeviation="1.58724" result="effect1_foregroundBlur"/>
</filter>
<filter id="filter3_f" x="0.559684" y="23.022" width="10.622" height="7.77518" filterUnits="userSpaceOnUse" color-interpolation-filters="sRGB">
<feFlood flood-opacity="0" result="BackgroundImageFix"/>
<feBlend mode="normal" in="SourceGraphic" in2="BackgroundImageFix" result="shape"/>
<feGaussianBlur stdDeviation="1.3288" result="effect1_foregroundBlur"/>
</filter>
<filter id="filter4_f" x="98.0737" y="17.2835" width="8.97561" height="10.0805" filterUnits="userSpaceOnUse" color-interpolation-filters="sRGB">
<feFlood flood-opacity="0" result="BackgroundImageFix"/>
<feBlend mode="normal" in="SourceGraphic" in2="BackgroundImageFix" result="shape"/>
<feGaussianBlur stdDeviation="1.52224" result="effect1_foregroundBlur"/>
</filter>
<filter id="filter5_d" x="11.7725" y="80.6699" width="95.9621" height="58.3301" filterUnits="userSpaceOnUse" color-interpolation-filters="sRGB">
<feFlood flood-opacity="0" result="BackgroundImageFix"/>
<feColorMatrix in="SourceAlpha" type="matrix" values="0 0 0 0 0 0 0 0 0 0 0 0 0 0 0 0 0 0 127 0" result="hardAlpha"/>
<feOffset dy="4"/>
<feGaussianBlur stdDeviation="2"/>
<feComposite in2="hardAlpha" operator="out"/>
<feColorMatrix type="matrix" values="0 0 0 0 0 0 0 0 0 0 0 0 0 0 0 0 0 0 0.25 0"/>
<feBlend mode="normal" in2="BackgroundImageFix" result="effect1_dropShadow"/>
<feBlend mode="normal" in="SourceGraphic" in2="effect1_dropShadow" result="shape"/>
</filter>
<linearGradient id="paint0_linear" x1="-170.465" y1="36.4978" x2="201.765" y2="36.4978" gradientUnits="userSpaceOnUse">
<stop stop-color="#E9C6AF"/>
<stop offset="0.31608" stop-color="#F1D8C8"/>
<stop offset="0.35976" stop-color="#E9C6AF"/>
<stop offset="0.41364" stop-color="#DBAF91"/>
<stop offset="0.45732" stop-color="#E9C6AF"/>
<stop offset="1" stop-color="#E9C6AF"/>
</linearGradient>
<linearGradient id="paint1_linear" x1="89.8852" y1="10.5861" x2="94.3804" y2="14.7745" gradientUnits="userSpaceOnUse">
<stop stop-color="#F4E3D7"/>
<stop offset="1" stop-color="#F4E3D7" stop-opacity="0"/>
</linearGradient>
<linearGradient id="paint2_linear" x1="70.53" y1="5.40358" x2="75.7694" y2="9.32637" gradientUnits="userSpaceOnUse">
<stop stop-color="#F4E3D7"/>
<stop offset="1" stop-color="#F4E3D7" stop-opacity="0"/>
</linearGradient>
<linearGradient id="paint3_linear" x1="47.2" y1="6.57368" x2="54.4434" y2="8.61315" gradientUnits="userSpaceOnUse">
<stop stop-color="#F4E3D7"/>
<stop offset="1" stop-color="#F4E3D7" stop-opacity="0"/>
</linearGradient>
<linearGradient id="paint4_linear" x1="2.55239" y1="28.0909" x2="4.83639" y2="24.5013" gradientUnits="userSpaceOnUse">
<stop stop-color="#F4E3D7"/>
<stop offset="1" stop-color="#F4E3D7" stop-opacity="0"/>
</linearGradient>
<linearGradient id="paint5_linear" x1="107.023" y1="22.6982" x2="100.938" y2="20.2715" gradientUnits="userSpaceOnUse">
<stop stop-color="#F4E3D7"/>
<stop offset="1" stop-color="#F4E3D7" stop-opacity="0"/>
</linearGradient>
</defs>
</svg>
