<svg width="109" height="139" viewBox="0 0 109 139" fill="none" xmlns="http://www.w3.org/2000/svg">
<path d="M44.2632 77.225L43.9794 78.956C42.1991 89.8143 50.4784 99.72 61.4803 99.8949L67.7525 99.9947C76.1285 100.128 82.4527 92.4371 80.7041 84.2446L77.3555 71.7497C76.9763 70.3348 76.7842 68.8763 76.7842 67.4114V66.6959C76.7842 63.4694 77.8492 60.3331 79.814 57.7737C80.4059 57.0027 81.0731 56.2924 81.8057 55.6535L82.1267 55.3735C85.0133 52.856 87.068 49.5217 88.019 45.8115L88.9961 41.9998L90.5361 37.331C91.0852 35.6662 91.0029 33.8576 90.3049 32.2496C89.4743 30.336 87.8485 28.8811 85.8547 28.2673L82.7472 27.3105C81.3928 26.8935 79.9835 26.6814 78.5663 26.6814H73.4054H67.0302C66.4395 26.6814 65.8499 26.6306 65.2679 26.5295L64.5021 26.3965C60.0113 25.6165 56.7326 21.7191 56.7326 17.1611V12.6202C56.7326 11.4806 56.5344 10.3497 56.1469 9.27801L55.2868 6.89951C54.6699 5.19349 53.2179 3.92539 51.4444 3.54372C49.8509 3.20079 48.1885 3.61546 46.9428 4.66657L46.1556 5.33075C45.0877 6.2318 44.2983 7.41818 43.8797 8.75124L43.5666 9.7483C43.233 10.8106 43.0633 11.9176 43.0633 13.0311V17.1611V22.9963C43.0633 26.4081 41.7741 29.694 39.4541 32.1956L38.9614 32.7268C38.1188 33.6353 37.111 34.375 35.9917 34.9064L34.7461 35.4978C32.8857 36.3811 30.7267 36.3811 28.8663 35.4978L21.5291 32.0142L13.359 27.5568C12.294 26.9758 11.1568 26.5385 9.97696 26.2563L6.59075 25.4466C5.51415 25.1891 4.38056 25.3342 3.40355 25.8546L1.9479 26.6299C1.3645 26.9406 1 27.5478 1 28.2087C1 28.8441 1.33697 29.4317 1.88529 29.7526L9.31717 34.102L21.5291 43.3837L31.8062 49.4204L38.1901 53.1269C39.7784 54.049 41.148 55.3043 42.2048 56.8063C43.7118 58.9483 44.5206 61.5035 44.5206 64.1225V74.0637C44.5206 75.1227 44.4345 76.18 44.2632 77.225Z" fill="url(#paint0_linear)" stroke="black"/>
<path fill-rule="evenodd" clip-rule="evenodd" d="M54.9804 7.89922C55.0185 10.2486 53.6967 10.6246 49.8582 10.6763C46.0196 10.7279 44.6861 10.3875 44.6479 8.03817C44.6098 5.68882 46.8919 3.75332 49.7451 3.71486C52.5984 3.6765 54.9423 5.5499 54.9805 7.89919L54.9804 7.89922Z" fill="url(#paint1_linear)" stroke="black"/>
<g opacity="0.698" filter="url(#filter0_f)">
<mask id="path-3-inside-1" fill="white">
<path fill-rule="evenodd" clip-rule="evenodd" d="M51.574 4.54362L51.5084 4.55156C51.7686 6.38873 51.9439 8.23553 51.8252 10.1085L51.8914 10.1151C52.7237 8.18815 52.4358 5.93095 51.4941 4.13625L51.574 4.54362Z"/>
</mask>
<path fill-rule="evenodd" clip-rule="evenodd" d="M51.574 4.54362L51.5084 4.55156C51.7686 6.38873 51.9439 8.23553 51.8252 10.1085L51.8914 10.1151C52.7237 8.18815 52.4358 5.93095 51.4941 4.13625L51.574 4.54362Z" fill="white"/>
<path d="M51.574 4.54362L51.5153 5.50502L52.8129 5.34787L52.5882 4.20248L51.574 4.54362ZM51.5084 4.55156L51.5672 3.59016L50.3299 3.74L50.4871 4.85008L51.5084 4.55156ZM51.8252 10.1085L50.7973 10.2309L50.7489 10.9947L51.533 11.0729L51.8252 10.1085ZM51.8914 10.1151L51.5992 11.0795L52.4745 11.1669L52.8366 10.3286L51.8914 10.1151ZM51.4941 4.13625L52.4349 3.58532L50.48 4.47739L51.4941 4.13625ZM51.6328 3.58221L51.5672 3.59016L51.4497 5.51297L51.5153 5.50502L51.6328 3.58221ZM50.4871 4.85008C50.7444 6.66768 50.9104 8.44727 50.7973 10.2309L52.853 9.98609C52.9774 8.0238 52.7927 6.10978 52.5298 4.25304L50.4871 4.85008ZM51.533 11.0729L51.5992 11.0795L52.1835 9.15069L52.1173 9.14409L51.533 11.0729ZM52.8366 10.3286C53.8215 8.0483 53.4472 5.51473 52.4349 3.58532L50.5534 4.68717C51.4243 6.34717 51.6259 8.32799 50.9462 9.90161L52.8366 10.3286ZM50.48 4.47739L50.5599 4.88476L52.5882 4.20248L52.5083 3.79511L50.48 4.47739Z" fill="black" mask="url(#path-3-inside-1)"/>
</g>
<g filter="url(#filter1_d)">
<path d="M16.7725 100.176C16.7725 89.1308 25.7268 80.1765 36.7725 80.1765H84.7346C95.7803 80.1765 104.735 89.1308 104.735 100.176V131H16.7725V100.176Z" fill="white"/>
</g>
<defs>
<filter id="filter0_f" x="48.3197" y="0.961756" width="7.23723" height="12.3278" filterUnits="userSpaceOnUse" color-interpolation-filters="sRGB">
<feFlood flood-opacity="0" result="BackgroundImageFix"/>
<feBlend mode="normal" in="SourceGraphic" in2="BackgroundImageFix" result="shape"/>
<feGaussianBlur stdDeviation="1.58724" result="effect1_foregroundBlur"/>
</filter>
<filter id="filter1_d" x="12.7725" y="80.1765" width="95.9621" height="58.8235" filterUnits="userSpaceOnUse" color-interpolation-filters="sRGB">
<feFlood flood-opacity="0" result="BackgroundImageFix"/>
<feColorMatrix in="SourceAlpha" type="matrix" values="0 0 0 0 0 0 0 0 0 0 0 0 0 0 0 0 0 0 127 0" result="hardAlpha"/>
<feOffset dy="4"/>
<feGaussianBlur stdDeviation="2"/>
<feComposite in2="hardAlpha" operator="out"/>
<feColorMatrix type="matrix" values="0 0 0 0 0 0 0 0 0 0 0 0 0 0 0 0 0 0 0.25 0"/>
<feBlend mode="normal" in2="BackgroundImageFix" result="effect1_dropShadow"/>
<feBlend mode="normal" in="SourceGraphic" in2="effect1_dropShadow" result="shape"/>
</filter>
<linearGradient id="paint0_linear" x1="47.6867" y1="3" x2="47.6867" y2="100.255" gradientUnits="userSpaceOnUse">
<stop stop-color="#E9C6AF"/>
<stop offset="0.296875" stop-color="#F1D8C8"/>
<stop offset="0.338542" stop-color="#E9C6AF"/>
<stop offset="0.364583" stop-color="#DBAF91"/>
<stop offset="0.427083" stop-color="#E9C6AF"/>
<stop offset="1" stop-color="#E9C6AF"/>
</linearGradient>
<linearGradient id="paint1_linear" x1="44.7712" y1="6.93025" x2="54.755" y2="9.53676" gradientUnits="userSpaceOnUse">
<stop stop-color="#F4E3D7"/>
<stop offset="1" stop-color="#F4E3D7" stop-opacity="0"/>
</linearGradient>
</defs>
</svg>
