<svg width="64" height="64" viewBox="0 0 49 49" fill="none" xmlns="http://www.w3.org/2000/svg">
<g id="Cart">
<g id="Ellipse 2" filter="url(#filter0_d)">
<circle cx="24.5" cy="20.5" r="16.5" fill="#F6B716"/>
</g>
<path width="49" height="49" id="Vector" d="M30.2653 16.8198C30.261 16.7628 30.2133 16.7188 30.1562 16.7188H28.7344C28.4323 16.7188 28.1875 16.4739 28.1875 16.1719C28.1875 14.4229 26.7645 13 25.0156 13C23.2667 13 21.8437 14.4229 21.8437 16.1719C21.8437 16.4739 21.5989 16.7188 21.2969 16.7188H19.875C19.8179 16.7188 19.7702 16.7628 19.7659 16.8198L19.0003 26.8823C18.998 26.9126 19.0084 26.9426 19.0292 26.9649C19.0499 26.9873 19.079 27 19.1094 27H30.9219C30.9523 27 30.9814 26.9873 31.002 26.965C31.0227 26.9427 31.0332 26.9127 31.0309 26.8824L30.2653 16.8198ZM22.7187 16.1719C22.7187 14.9054 23.749 13.875 25.0156 13.875C26.2822 13.875 27.3125 14.9054 27.3125 16.1719C27.3125 16.4739 27.0676 16.7188 26.7656 16.7188H23.2656C22.9636 16.7188 22.7187 16.4739 22.7187 16.1719ZM22.2812 19.7812C21.678 19.7812 21.1875 19.2906 21.1875 18.6875C21.1875 18.5941 21.1975 18.5028 21.2175 18.4151C21.3246 17.9459 21.8437 18.2063 21.8437 18.6875C21.8437 18.9288 22.0401 19.125 22.2812 19.125C22.5224 19.125 22.7187 18.9288 22.7187 18.6875C22.7187 18.2066 23.2369 17.9468 23.3447 18.4155C23.3649 18.5032 23.375 18.5945 23.375 18.6875C23.375 19.2906 22.8844 19.7812 22.2812 19.7812ZM27.75 19.7812C27.1468 19.7812 26.6562 19.2906 26.6562 18.6875C26.6562 18.5941 26.6662 18.5028 26.6863 18.4151C26.7933 17.9459 27.3125 18.2063 27.3125 18.6875C27.3125 18.9288 27.5088 19.125 27.75 19.125C27.9912 19.125 28.1875 18.9288 28.1875 18.6875C28.1875 18.2066 28.7056 17.9468 28.8135 18.4155C28.8336 18.5032 28.8437 18.5945 28.8437 18.6875C28.8437 19.2906 28.3532 19.7812 27.75 19.7812Z" fill="white"/>
</g>
<defs>
<filter id="filter0_d" x="0" y="0" width="49" height="49" filterUnits="userSpaceOnUse" color-interpolation-filters="sRGB">
<feFlood flood-opacity="0" result="BackgroundImageFix"/>
<feColorMatrix in="SourceAlpha" type="matrix" values="0 0 0 0 0 0 0 0 0 0 0 0 0 0 0 0 0 0 127 0" result="hardAlpha"/>
<feOffset dy="4"/>
<feGaussianBlur stdDeviation="4"/>
<feColorMatrix type="matrix" values="0 0 0 0 0.804167 0 0 0 0 0.276633 0 0 0 0 0.160833 0 0 0 0.26 0"/>
<feBlend mode="normal" in2="BackgroundImageFix" result="effect1_dropShadow"/>
<feBlend mode="normal" in="SourceGraphic" in2="effect1_dropShadow" result="shape"/>
</filter>
</defs>
</svg>
