<svg width="128" height="65" viewBox="0 0 128 65" fill="none" xmlns="http://www.w3.org/2000/svg">
<path d="M55.3209 17.3143C54.4959 18.2969 53.8692 19.2922 53.5156 20.2739C53.1613 21.2556 53.1066 22.1897 53.3408 23.0387C53.5664 23.8894 54.0464 24.6865 54.6949 25.459C55.0212 25.8443 55.3857 26.2246 55.7829 26.5938C55.9804 26.7792 56.1857 26.9638 56.3987 27.1433L56.7211 27.4156L57.0832 27.7133C57.3728 27.9583 57.6194 28.182 57.8793 28.4305C58.1299 28.6763 58.3734 28.9307 58.6083 29.1969C59.0704 29.7286 59.4957 30.3003 59.8407 30.9154C60.5384 32.1387 60.9271 33.5721 60.7523 34.9741C60.5837 36.3743 59.8883 37.664 58.908 38.6559C58.4155 39.1527 57.8653 39.5917 57.262 39.9583C56.661 40.325 56.0194 40.6397 55.3224 40.8405C56.0834 39.8214 56.6672 38.809 57.0184 37.8103C57.3728 36.8116 57.4766 35.8486 57.3033 34.9698C57.1402 34.0902 56.7359 33.2752 56.1521 32.4875C55.5706 31.7057 54.798 30.9409 53.9636 30.2322L53.5952 29.9226C53.4633 29.8094 53.3299 29.6954 53.1995 29.5772C52.9443 29.3407 52.6891 29.0983 52.4471 28.8447C51.9632 28.336 51.5152 27.7899 51.132 27.1986C50.7449 26.6091 50.4272 25.9711 50.2079 25.2965C49.9917 24.6219 49.8793 23.9107 49.9121 23.2012C49.9488 22.4917 50.1197 21.789 50.4241 21.1484C50.7238 20.5045 51.15 19.9251 51.6464 19.4198C52.149 18.9171 52.7172 18.4857 53.3369 18.1319C53.9527 17.7797 54.613 17.4879 55.3209 17.3143Z" fill="#F6B716"/>
<path d="M64.8788 0.34201C63.6199 1.8452 62.6622 3.36626 62.1214 4.86774C61.5774 6.37008 61.4946 7.79671 61.8529 9.09403C62.1986 10.3948 62.9315 11.613 63.9243 12.7963C64.423 13.3841 64.9795 13.966 65.5867 14.5317C65.8911 14.8142 66.2017 15.0974 66.528 15.3722L67.0197 15.7891L67.5746 16.2433C68.0156 16.6176 68.3926 16.9605 68.7906 17.3399C69.1731 17.7159 69.5485 18.1055 69.9036 18.5122C70.6138 19.3229 71.2601 20.1974 71.7908 21.1391C72.8577 23.0098 73.4509 25.2029 73.184 27.3441C72.9264 29.4845 71.8642 31.4573 70.3641 32.9741C69.6101 33.7346 68.7696 34.4033 67.8486 34.9656C66.9292 35.5262 65.9473 36.0077 64.8796 36.3148C66.0433 34.7572 66.9362 33.2106 67.4755 31.6802C68.0172 30.1549 68.1748 28.6831 67.911 27.339C67.6613 25.9941 67.0431 24.7478 66.1487 23.5432C65.2628 22.3471 64.0812 21.1783 62.8043 20.0962L62.2423 19.6223C62.0386 19.4488 61.8349 19.2744 61.6367 19.094C61.2441 18.7333 60.8554 18.3624 60.4855 17.9728C59.7471 17.1961 59.0611 16.3616 58.4749 15.4564C57.8841 14.5547 57.3986 13.5789 57.0622 12.5487C56.7305 11.5177 56.5588 10.4296 56.6103 9.34414C56.665 8.25949 56.9249 7.18676 57.3932 6.2059C57.8521 5.22249 58.5038 4.33606 59.2617 3.56447C60.0297 2.79543 60.9007 2.13614 61.8466 1.59595C62.7887 1.0532 63.7971 0.606579 64.8788 0.34201Z" fill="#F6B716"/>
<path d="M61.8293 56.2288C80.24 56.2288 95.1647 53.4058 95.1647 49.9234C95.1647 46.4411 80.24 43.618 61.8293 43.618C43.4187 43.618 28.4939 46.4411 28.4939 49.9234C28.4939 53.4058 43.4187 56.2288 61.8293 56.2288Z" fill="white"/>
<path d="M85.7957 56.8584C79.373 58.0732 70.861 58.7427 61.8292 58.7427C52.7966 58.7427 44.2854 58.0732 37.8628 56.8584C37.8214 56.8499 37.7816 56.8414 37.7402 56.8346C39.2177 61.066 49.4351 64.342 61.8292 64.342C74.2226 64.342 84.4399 61.0651 85.9174 56.8346C85.876 56.8423 85.837 56.8508 85.7957 56.8584Z" fill="white"/>
<path d="M17.5073 38.2275V39.2595H2.19531V38.2275H5.45931C4.57931 37.7795 3.77931 37.2035 3.05931 36.4995L5.29131 33.7635C7.09931 35.3475 8.77131 36.1395 10.3073 36.1395C10.9953 36.1395 11.5313 35.9955 11.9153 35.7075C12.3153 35.4035 12.5153 35.0035 12.5153 34.5075C12.5153 33.9955 12.3073 33.5955 11.8913 33.3075C11.4753 33.0035 10.6513 32.6995 9.41931 32.3955C7.46731 31.9315 6.03531 31.3315 5.12331 30.5955C4.22731 29.8435 3.77931 28.6755 3.77931 27.0915C3.77931 25.4915 4.34731 24.2595 5.48331 23.3955C6.63531 22.5315 8.06731 22.0995 9.77931 22.0995C10.8993 22.0995 12.0193 22.2915 13.1393 22.6755C14.2593 23.0595 15.2353 23.6035 16.0673 24.3075L14.1713 27.0435C12.7153 25.9395 11.2113 25.3875 9.65931 25.3875C9.03531 25.3875 8.53931 25.5395 8.17131 25.8435C7.81931 26.1315 7.64331 26.5235 7.64331 27.0195C7.64331 27.4995 7.85931 27.8835 8.29131 28.1715C8.73931 28.4595 9.75531 28.8035 11.3393 29.2035C12.9393 29.5875 14.1793 30.1715 15.0593 30.9555C15.9393 31.7395 16.3793 32.8275 16.3793 34.2195C16.3793 35.9475 15.7313 37.2835 14.4353 38.2275H17.5073ZM37.6405 38.2275V39.2595H31.3285L29.7685 35.6355H22.7365L21.1765 39.2595H14.8645V38.2275H17.6245L24.4405 22.4835H28.0645L34.8565 38.2275H37.6405ZM26.2645 27.4755L24.1525 32.3475H28.3525L26.2645 27.4755ZM50.4833 38.2275V39.2595H34.9313V38.2275H37.2593V22.4835H41.0033V35.9235H48.1553V38.2275H50.4833ZM56.7079 38.2275V39.2595H48.8359V38.2275H50.8999V22.4835H54.6439V38.2275H56.7079ZM74.1829 38.2275V39.2595H55.4869V38.2275H57.8149V36.6915L66.5989 25.7235H58.1029V22.4835H71.7109V25.0755L62.9509 35.9955H71.8549V38.2275H74.1829ZM93.3749 38.2275V39.2595H87.0629L85.5029 35.6355H78.4709L76.9109 39.2595H70.5989V38.2275H73.3589L80.1749 22.4835H83.7989L90.5909 38.2275H93.3749ZM81.9989 27.4755L79.8869 32.3475H84.0869L81.9989 27.4755ZM92.9937 38.2275V22.4835H99.3537C101.962 22.4835 103.818 22.9235 104.922 23.8035C106.042 24.6835 106.602 26.0995 106.602 28.0515C106.602 30.7395 105.538 32.4755 103.41 33.2595L106.914 38.2275H109.17V39.2595H103.05L99.3297 33.9075H96.7377V39.2595H90.6657V38.2275H92.9937ZM99.4737 30.6675C100.754 30.6675 101.626 30.4595 102.09 30.0435C102.554 29.6275 102.786 28.9715 102.786 28.0755C102.786 27.1635 102.546 26.5395 102.066 26.2035C101.586 25.8675 100.746 25.6995 99.5457 25.6995H96.7377V30.6675H99.4737ZM110.431 38.2275V22.4835H116.791C119.399 22.4835 121.255 22.9235 122.359 23.8035C123.479 24.6835 124.039 26.0995 124.039 28.0515C124.039 30.7395 122.975 32.4755 120.847 33.2595L124.351 38.2275H126.607V39.2595H120.487L116.767 33.9075H114.175V39.2595H108.103V38.2275H110.431ZM116.911 30.6675C118.191 30.6675 119.063 30.4595 119.527 30.0435C119.991 29.6275 120.223 28.9715 120.223 28.0755C120.223 27.1635 119.983 26.5395 119.503 26.2035C119.023 25.8675 118.183 25.6995 116.983 25.6995H114.175V30.6675H116.911Z" fill="white"/>
</svg>
