<svg width="112" height="18" viewBox="0 0 112 18" fill="none" xmlns="http://www.w3.org/2000/svg">
<path d="M8.40554 4.50781H10.6875C10.6428 2.29616 8.7571 0.730113 5.97017 0.730113C3.22159 0.730113 1.15696 2.27699 1.16335 4.59091C1.16335 6.47017 2.49929 7.55043 4.65341 8.10653L6.14276 8.49006C7.5554 8.84801 8.48864 9.28906 8.49503 10.3054C8.48864 11.424 7.42756 12.1719 5.88068 12.1719C4.39773 12.1719 3.24716 11.5071 3.15128 10.1328H0.818182C0.914062 12.7344 2.85085 14.1982 5.89986 14.1982C9.03835 14.1982 10.8601 12.6321 10.8665 10.3246C10.8601 8.0554 8.98722 7.01989 7.01847 6.55327L5.79119 6.24645C4.71733 5.99077 3.55398 5.53693 3.56676 4.44389C3.57315 3.45952 4.45526 2.73722 5.93821 2.73722C7.35085 2.73722 8.28409 3.3956 8.40554 4.50781ZM12.8784 14H15.1923V4.18182H12.8784V14ZM14.0417 2.78835C14.7768 2.78835 15.3777 2.22585 15.3777 1.53551C15.3777 0.838778 14.7768 0.276278 14.0417 0.276278C13.3002 0.276278 12.6994 0.838778 12.6994 1.53551C12.6994 2.22585 13.3002 2.78835 14.0417 2.78835ZM21.8544 14.1918C24.3217 14.1918 25.8942 12.728 26.0604 10.6442H23.8487C23.6506 11.6989 22.8899 12.3061 21.8736 12.3061C20.429 12.3061 19.4957 11.098 19.4957 9.09091C19.4957 7.10938 20.4482 5.92045 21.8736 5.92045C22.9858 5.92045 23.6697 6.63636 23.8487 7.58239H26.0604C25.9006 5.45384 24.2386 4.05398 21.8416 4.05398C18.9652 4.05398 17.1499 6.13139 17.1499 9.12926C17.1499 12.1016 18.9205 14.1918 21.8544 14.1918ZM27.9604 14H30.2743V4.18182H27.9604V14ZM29.1238 2.78835C29.8588 2.78835 30.4597 2.22585 30.4597 1.53551C30.4597 0.838778 29.8588 0.276278 29.1238 0.276278C28.3823 0.276278 27.7814 0.838778 27.7814 1.53551C27.7814 2.22585 28.3823 2.78835 29.1238 2.78835ZM34.9677 0.909091H32.6538V14H34.9677V0.909091ZM37.3471 14H39.661V4.18182H37.3471V14ZM38.5105 2.78835C39.2456 2.78835 39.8464 2.22585 39.8464 1.53551C39.8464 0.838778 39.2456 0.276278 38.5105 0.276278C37.769 0.276278 37.1681 0.838778 37.1681 1.53551C37.1681 2.22585 37.769 2.78835 38.5105 2.78835ZM44.8658 14.1982C46.4062 14.1982 47.3267 13.4759 47.7486 12.6513H47.8253V14H50.0497V7.42898C50.0497 4.83381 47.9339 4.05398 46.0611 4.05398C43.9964 4.05398 42.4112 4.97443 41.8999 6.7642L44.0604 7.07102C44.2905 6.39986 44.9425 5.82457 46.0739 5.82457C47.1477 5.82457 47.7358 6.37429 47.7358 7.33949V7.37784C47.7358 8.04261 47.0391 8.07457 45.3068 8.25994C43.402 8.46449 41.5803 9.03338 41.5803 11.245C41.5803 13.1754 42.9929 14.1982 44.8658 14.1982ZM45.4666 12.4979C44.5014 12.4979 43.8111 12.0568 43.8111 11.2067C43.8111 10.3182 44.5845 9.94744 45.62 9.80043C46.2273 9.71733 47.4418 9.56392 47.7422 9.32102V10.478C47.7422 11.571 46.8601 12.4979 45.4666 12.4979ZM54.6903 8.24716C54.6903 6.82812 55.5469 6.00994 56.7678 6.00994C57.9631 6.00994 58.679 6.79616 58.679 8.10653V14H60.9929V7.74858C60.9993 5.39631 59.657 4.05398 57.6307 4.05398C56.1605 4.05398 55.1506 4.7571 54.7031 5.85014H54.5881V4.18182H52.3764V14H54.6903V8.24716ZM67.81 17.6818H70.1239V12.4531H70.2198C70.5842 13.169 71.3448 14.1726 73.0323 14.1726C75.3462 14.1726 77.0785 12.3381 77.0785 9.10369C77.0785 5.83097 75.2951 4.05398 73.0259 4.05398C71.2937 4.05398 70.5714 5.09588 70.2198 5.8054H70.0856V4.18182H67.81V17.6818ZM70.0792 9.09091C70.0792 7.18608 70.8974 5.95241 72.3867 5.95241C73.9272 5.95241 74.7198 7.26278 74.7198 9.09091C74.7198 10.9318 73.9144 12.2741 72.3867 12.2741C70.9102 12.2741 70.0792 10.9957 70.0792 9.09091ZM79.06 14H81.3739V4.18182H79.06V14ZM80.2234 2.78835C80.9585 2.78835 81.5593 2.22585 81.5593 1.53551C81.5593 0.838778 80.9585 0.276278 80.2234 0.276278C79.4819 0.276278 78.881 0.838778 78.881 1.53551C78.881 2.22585 79.4819 2.78835 80.2234 2.78835ZM83.6255 14H91.6859V12.0824H86.7001V11.9993L91.5197 5.76065V4.18182H83.7917V6.09943H88.688V6.18253L83.6255 12.5298V14ZM93.733 14H101.793V12.0824H96.8075V11.9993L101.627 5.76065V4.18182H93.8991V6.09943H98.7955V6.18253L93.733 12.5298V14ZM106.794 14.1982C108.334 14.1982 109.254 13.4759 109.676 12.6513H109.753V14H111.977V7.42898C111.977 4.83381 109.862 4.05398 107.989 4.05398C105.924 4.05398 104.339 4.97443 103.828 6.7642L105.988 7.07102C106.218 6.39986 106.87 5.82457 108.002 5.82457C109.075 5.82457 109.664 6.37429 109.664 7.33949V7.37784C109.664 8.04261 108.967 8.07457 107.235 8.25994C105.33 8.46449 103.508 9.03338 103.508 11.245C103.508 13.1754 104.921 14.1982 106.794 14.1982ZM107.394 12.4979C106.429 12.4979 105.739 12.0568 105.739 11.2067C105.739 10.3182 106.512 9.94744 107.548 9.80043C108.155 9.71733 109.369 9.56392 109.67 9.32102V10.478C109.67 11.571 108.788 12.4979 107.394 12.4979Z" fill="black"/>
</svg>
